<svg id="svg" version="1.1" xmlns="http://www.w3.org/2000/svg" xmlns:xlink="http://www.w3.org/1999/xlink" width="400" height="613.8504155124654" viewBox="0, 0, 400,613.8504155124654"><g id="svgg"><path id="path0" d="M0.000 306.800 L 0.000 613.600 200.000 613.600 L 400.000 613.600 400.000 306.800 L 400.000 0.000 200.000 0.000 L 0.000 0.000 0.000 306.800 M319.800 23.416 C 328.386 24.899,335.634 26.856,339.978 28.864 C 340.980 29.327,342.790 30.162,344.000 30.720 C 367.905 41.730,387.110 67.682,389.792 92.600 C 389.910 93.700,390.183 96.400,390.397 98.600 C 390.923 103.981,390.891 298.215,390.364 305.800 C 389.625 316.419,388.947 319.957,385.918 329.000 C 379.033 349.562,360.533 369.031,340.965 376.310 C 331.793 379.721,328.337 380.603,318.000 382.169 C 314.455 382.706,309.321 382.805,285.082 382.803 L 256.364 382.800 255.382 381.818 L 254.400 380.836 254.395 364.118 C 254.384 328.339,251.444 320.377,230.932 300.590 C 219.634 289.692,219.215 288.623,225.634 287.071 C 234.248 284.988,236.011 284.358,243.800 280.575 C 256.255 274.525,268.583 261.219,271.272 250.922 C 272.597 245.846,272.918 244.218,273.268 240.800 C 275.888 215.172,265.487 198.817,239.800 188.172 C 237.380 187.169,235.040 186.193,234.600 186.003 C 234.160 185.813,232.720 185.292,231.400 184.845 C 230.080 184.398,228.010 183.686,226.800 183.262 C 225.590 182.837,222.710 181.922,220.400 181.228 C 218.090 180.533,215.660 179.777,215.000 179.547 C 214.340 179.318,213.260 178.985,212.600 178.808 C 210.460 178.234,206.648 177.161,204.600 176.557 C 203.500 176.233,202.060 175.810,201.400 175.619 C 200.740 175.427,199.660 175.084,199.000 174.856 C 198.340 174.628,195.280 173.630,192.200 172.638 C 174.932 167.077,168.438 162.190,166.779 153.505 C 164.778 143.029,171.789 134.942,186.376 130.900 C 190.175 129.848,206.650 130.022,211.800 131.168 C 214.000 131.658,216.556 132.219,217.480 132.414 C 218.404 132.609,219.484 132.940,219.880 133.149 C 220.276 133.358,221.500 133.840,222.600 134.220 C 227.048 135.756,234.204 139.481,240.134 143.345 C 248.132 148.559,248.304 148.509,256.902 138.499 C 270.063 123.177,269.692 124.016,264.980 120.221 C 263.873 119.330,262.192 117.970,261.245 117.200 C 255.792 112.765,243.558 105.740,238.000 103.852 C 237.010 103.516,235.210 102.867,234.000 102.409 C 232.790 101.951,231.080 101.391,230.200 101.163 C 225.515 99.951,223.576 99.512,221.400 99.169 C 218.220 98.668,215.205 97.649,215.179 97.068 C 215.167 96.811,215.167 92.730,215.178 88.000 C 215.204 77.129,214.943 75.159,213.255 73.471 L 211.985 72.200 199.234 72.200 C 182.376 72.200,183.600 71.057,183.600 86.800 C 183.600 97.914,183.639 97.712,181.400 98.116 C 180.740 98.234,178.850 98.604,177.200 98.936 C 172.410 99.901,167.623 101.276,161.681 103.396 C 148.276 108.177,135.606 120.637,131.779 132.800 C 131.399 134.010,130.945 135.293,130.771 135.651 C 130.597 136.009,130.337 136.999,130.194 137.851 C 130.050 138.703,129.779 139.940,129.592 140.600 C 128.338 145.023,128.358 158.833,129.629 165.600 C 132.890 182.955,146.860 195.208,173.200 203.814 C 178.367 205.502,179.941 205.984,185.100 207.456 C 186.365 207.817,187.850 208.251,188.400 208.420 C 188.950 208.590,190.750 209.034,192.400 209.407 C 194.050 209.780,195.991 210.336,196.714 210.643 C 197.436 210.949,198.410 211.200,198.878 211.200 C 199.347 211.200,200.646 211.460,201.765 211.778 C 202.884 212.095,204.880 212.653,206.200 213.018 C 207.520 213.382,210.400 214.303,212.600 215.064 C 214.800 215.825,217.140 216.590,217.800 216.764 C 219.094 217.104,223.661 219.374,226.110 220.895 C 238.514 228.596,237.732 245.385,224.673 251.718 C 214.661 256.573,195.586 258.043,184.972 254.778 C 184.296 254.570,183.372 254.400,182.918 254.400 C 181.987 254.400,179.142 253.583,175.000 252.127 C 173.460 251.586,171.653 250.978,170.985 250.776 C 168.296 249.964,161.047 245.954,154.956 241.908 C 145.454 235.596,145.277 235.611,137.765 243.320 C 123.757 257.695,123.656 257.840,125.362 261.120 C 126.294 262.913,135.580 271.679,138.986 273.982 C 142.045 276.050,148.655 280.000,149.056 280.000 C 149.163 280.000,150.273 280.460,151.525 281.021 C 156.071 283.061,157.771 283.725,160.200 284.407 C 160.860 284.593,162.390 285.040,163.600 285.401 C 166.697 286.326,171.018 287.222,173.577 287.471 C 178.476 287.948,178.800 288.749,178.800 300.394 C 178.800 310.795,178.971 310.108,175.413 314.017 C 168.451 321.668,164.269 329.534,162.344 338.600 C 162.099 339.753,161.809 349.213,161.658 360.937 L 161.396 381.274 160.454 382.037 C 158.982 383.229,91.670 383.189,82.800 381.991 C 73.372 380.718,65.274 378.651,59.541 376.054 C 58.584 375.621,56.589 374.719,55.109 374.050 C 42.516 368.360,29.257 356.397,21.360 343.600 C 18.260 338.577,16.673 335.148,13.399 326.400 C 12.280 323.411,11.655 320.701,10.122 312.200 C 9.153 306.832,8.983 98.136,9.943 94.600 C 10.242 93.500,10.635 91.610,10.817 90.400 C 11.444 86.217,11.883 84.478,13.647 79.200 C 15.253 74.392,15.649 73.415,17.675 69.255 C 23.797 56.691,33.957 45.142,46.490 36.503 C 47.530 35.786,48.466 35.200,48.570 35.200 C 48.675 35.200,49.534 34.687,50.480 34.060 C 51.426 33.432,53.820 32.152,55.800 31.215 C 62.233 28.170,64.655 27.235,69.600 25.888 C 74.130 24.653,75.869 24.270,78.400 23.951 C 79.830 23.770,81.720 23.458,82.600 23.257 C 85.731 22.543,315.634 22.697,319.800 23.416 M218.600 310.390 C 230.472 314.582,238.686 322.575,242.375 333.525 C 243.164 335.868,243.193 336.953,243.295 368.111 C 243.382 394.671,243.496 400.393,243.949 400.939 C 244.579 401.698,246.080 401.799,247.267 401.164 C 248.358 400.580,256.348 400.622,258.935 401.226 C 266.500 402.990,271.856 405.823,276.867 410.711 C 279.835 413.607,280.313 413.693,284.800 412.137 C 292.911 409.325,304.841 412.842,311.988 420.152 L 314.577 422.800 317.488 422.800 C 319.090 422.800,322.049 422.515,324.064 422.168 C 327.405 421.591,327.951 421.591,330.247 422.168 C 331.631 422.515,333.171 422.800,333.669 422.800 C 334.759 422.800,337.313 423.687,340.723 425.249 C 350.492 429.725,357.638 438.738,360.188 449.800 C 361.036 453.479,360.922 518.269,360.057 524.000 C 354.700 559.506,337.784 584.697,309.924 598.656 C 305.670 600.787,298.382 603.753,295.800 604.404 C 295.140 604.570,293.181 605.095,291.446 605.570 C 280.054 608.688,252.674 610.997,245.919 609.409 C 245.414 609.290,242.840 609.017,240.200 608.803 C 234.884 608.372,226.848 607.082,222.757 606.003 C 221.791 605.748,219.920 605.253,218.600 604.903 C 201.454 600.352,186.958 592.396,175.453 581.222 C 166.661 572.682,159.844 563.057,140.976 532.544 C 138.410 528.395,135.661 524.010,134.866 522.800 C 134.071 521.590,132.606 519.216,131.610 517.525 C 129.890 514.603,127.109 509.984,123.347 503.800 C 114.366 489.039,115.115 474.452,125.382 464.179 C 136.267 453.287,150.293 452.851,165.094 462.945 C 167.557 464.625,169.936 466.000,170.379 466.000 C 171.184 466.000,171.186 465.869,171.300 401.500 C 171.427 330.494,171.209 336.541,173.835 330.943 C 177.820 322.444,187.560 313.115,195.152 310.525 C 199.851 308.921,214.206 308.839,218.600 310.390 M201.546 340.603 C 199.422 341.709,197.576 343.857,196.409 346.580 C 195.607 348.451,195.600 349.084,195.600 424.246 L 195.600 500.027 194.626 501.949 C 192.853 505.447,188.876 508.000,185.200 508.000 C 181.873 508.000,179.986 506.789,172.814 500.053 C 153.342 481.764,151.509 480.400,146.400 480.400 C 139.098 480.400,139.303 487.398,146.951 499.200 C 148.163 501.070,150.188 504.220,151.452 506.200 C 166.059 529.092,181.126 551.529,185.878 557.466 C 192.018 565.138,202.036 572.989,210.000 576.371 C 211.210 576.885,213.100 577.713,214.200 578.210 C 215.300 578.708,217.100 579.409,218.200 579.767 C 219.300 580.125,220.560 580.570,221.000 580.756 C 222.231 581.275,226.042 582.204,232.000 583.436 C 237.021 584.475,250.561 585.268,259.000 585.019 C 269.943 584.695,273.630 584.326,284.800 582.436 C 287.029 582.059,289.797 581.275,291.460 580.550 C 292.154 580.247,292.849 580.000,293.005 580.000 C 295.106 580.000,306.914 572.451,312.274 567.681 C 322.504 558.578,331.566 544.135,334.411 532.400 C 337.773 518.530,337.600 521.088,337.600 485.231 C 337.600 454.501,337.568 453.106,336.839 451.684 C 334.604 447.326,328.860 445.740,324.749 448.346 C 321.834 450.195,321.473 451.367,321.202 459.851 C 320.930 468.360,320.572 469.293,316.757 471.405 C 312.066 474.004,305.997 472.702,303.012 468.457 L 301.800 466.733 301.600 454.866 C 301.392 442.519,301.345 442.194,299.537 440.547 C 295.177 436.576,287.351 437.794,285.066 442.800 C 284.777 443.432,284.534 447.843,284.405 454.800 L 284.200 465.800 283.115 467.468 C 278.775 474.141,267.579 474.401,263.590 467.921 C 262.065 465.443,262.025 464.946,261.821 445.826 C 261.626 427.572,261.752 428.363,258.758 426.600 C 256.967 425.545,250.851 425.469,249.000 426.478 C 243.685 429.375,243.200 430.674,243.200 442.003 C 243.200 452.038,242.827 454.706,241.026 457.559 C 237.185 463.644,226.973 464.594,221.927 459.335 C 218.797 456.074,219.042 460.783,218.808 399.300 L 218.600 344.400 217.510 343.034 C 214.772 339.602,206.024 338.270,201.546 340.603 " stroke="none" fill="#fafbfa" fill-rule="evenodd"></path><path id="path1" d="M85.400 23.823 C 85.180 23.911,83.110 24.250,80.800 24.577 C 75.655 25.303,69.573 26.628,66.800 27.625 C 41.344 36.780,23.249 54.486,14.910 78.400 C 12.674 84.812,12.882 84.003,11.372 92.200 C 10.199 98.565,10.052 110.891,10.057 202.400 C 10.063 312.520,9.993 309.897,13.237 322.600 C 20.867 352.477,49.477 377.138,80.600 380.666 C 91.921 381.949,93.662 382.000,125.894 382.000 C 154.868 382.000,158.724 381.929,159.511 381.377 L 160.400 380.755 160.402 362.477 C 160.404 350.979,160.567 343.310,160.842 341.800 C 161.083 340.480,161.430 338.590,161.613 337.600 C 163.134 329.366,168.024 320.568,175.888 311.917 L 177.600 310.034 177.595 300.717 C 177.588 288.941,177.399 288.394,173.338 288.403 C 168.715 288.413,154.473 283.936,147.800 280.374 C 139.128 275.746,135.758 273.256,129.484 266.843 C 121.575 258.757,121.552 259.006,131.101 248.848 C 145.450 233.585,144.706 233.843,154.786 240.630 C 161.562 245.193,165.268 247.302,169.600 249.060 C 171.470 249.819,173.360 250.590,173.800 250.773 C 174.240 250.957,175.680 251.423,177.000 251.810 C 178.320 252.196,179.872 252.680,180.450 252.884 C 184.125 254.184,197.868 255.686,203.600 255.413 C 223.843 254.451,233.782 247.988,233.761 235.800 C 233.744 225.630,226.913 219.973,208.200 214.631 C 206.880 214.254,205.387 213.778,204.881 213.573 C 204.376 213.368,203.631 213.200,203.227 213.200 C 202.823 213.200,201.526 212.920,200.346 212.578 C 196.892 211.576,194.503 210.927,189.400 209.605 C 186.760 208.921,184.150 208.216,183.600 208.037 C 183.050 207.859,181.610 207.425,180.400 207.073 C 162.548 201.881,150.919 196.312,142.465 188.907 C 129.173 177.264,124.709 160.570,129.064 138.800 C 129.394 137.150,129.817 135.440,130.004 135.000 C 130.190 134.560,130.705 133.120,131.147 131.800 C 134.818 120.847,144.111 110.988,156.809 104.574 C 158.740 103.598,160.573 102.800,160.880 102.800 C 161.188 102.800,161.611 102.642,161.820 102.449 C 162.711 101.627,177.972 97.507,181.600 97.110 L 182.600 97.000 182.800 86.000 C 183.010 74.443,183.045 74.225,184.995 72.400 L 186.063 71.400 198.640 71.279 C 216.702 71.105,215.704 70.249,216.000 86.174 L 216.200 96.949 218.200 97.476 C 219.300 97.767,221.190 98.171,222.400 98.375 C 237.114 100.857,257.622 111.207,267.180 120.974 C 270.449 124.315,270.574 124.057,259.273 137.248 C 248.820 149.449,248.532 149.570,240.951 144.946 C 238.558 143.486,235.700 141.747,234.600 141.082 C 229.451 137.967,220.684 134.107,216.600 133.157 C 189.433 126.838,168.260 133.992,167.671 149.689 C 167.240 161.201,174.321 166.516,200.400 174.253 C 201.610 174.612,203.320 175.135,204.200 175.417 C 205.080 175.698,206.880 176.228,208.200 176.596 C 209.520 176.963,211.050 177.404,211.600 177.576 C 212.150 177.747,213.590 178.178,214.800 178.533 C 222.634 180.833,225.495 181.704,226.200 182.003 C 226.640 182.190,228.080 182.708,229.400 183.153 C 232.804 184.303,237.259 185.936,238.200 186.380 C 238.640 186.587,239.900 187.144,241.000 187.618 C 255.314 193.786,265.415 202.288,270.426 212.389 C 276.285 224.199,276.181 242.791,270.183 255.841 C 264.918 267.297,251.231 279.605,238.755 284.102 C 232.963 286.190,227.579 287.786,224.400 288.357 C 221.114 288.948,221.820 290.076,231.440 299.605 C 245.397 313.431,248.836 318.390,252.377 329.800 C 254.784 337.557,255.199 342.364,255.206 362.606 C 255.209 372.283,255.344 380.398,255.506 380.640 C 256.376 381.943,257.519 382.000,282.474 381.991 C 313.245 381.979,320.921 381.437,330.800 378.580 C 332.010 378.230,333.713 377.767,334.584 377.551 C 335.456 377.335,336.356 377.025,336.584 376.862 C 336.813 376.699,337.980 376.227,339.179 375.814 C 340.377 375.401,342.768 374.374,344.491 373.532 C 346.215 372.689,347.698 372.000,347.786 372.000 C 347.874 372.000,349.353 371.144,351.073 370.098 C 372.987 356.766,386.865 334.570,389.177 309.155 C 389.772 302.624,389.769 102.200,389.174 96.400 C 388.937 94.090,388.486 91.030,388.171 89.600 C 387.856 88.170,387.598 86.627,387.599 86.171 C 387.600 85.715,387.349 84.545,387.042 83.571 C 386.735 82.597,386.166 80.720,385.778 79.400 C 385.143 77.239,383.484 73.087,381.712 69.223 C 372.741 49.667,349.829 30.977,329.000 26.225 C 327.460 25.873,325.570 25.421,324.800 25.219 C 318.581 23.589,319.275 23.597,199.800 23.631 C 137.100 23.649,85.620 23.735,85.400 23.823 M201.600 310.429 C 191.406 311.164,180.638 319.473,174.868 331.055 C 171.846 337.121,172.000 333.241,172.000 403.528 C 172.000 451.771,171.889 466.351,171.520 466.720 C 170.710 467.530,169.489 467.250,167.400 465.776 C 162.965 462.645,159.938 460.682,158.587 460.060 C 155.137 458.472,153.871 458.003,151.518 457.441 C 126.157 451.382,108.967 479.378,123.788 502.603 C 124.491 503.705,125.523 505.415,126.082 506.403 C 126.640 507.391,128.470 510.422,130.149 513.137 C 131.827 515.853,133.200 518.149,133.200 518.241 C 133.200 518.332,134.335 520.160,135.722 522.303 C 137.109 524.446,139.735 528.630,141.558 531.600 C 146.357 539.420,149.495 544.390,157.543 556.912 C 173.061 581.059,190.171 595.102,212.200 601.771 C 213.520 602.170,215.191 602.745,215.914 603.049 C 216.636 603.352,217.502 603.600,217.838 603.600 C 218.175 603.600,219.294 603.853,220.325 604.162 C 221.356 604.470,223.280 604.932,224.600 605.187 C 225.920 605.442,228.032 605.910,229.294 606.226 C 230.556 606.542,232.176 606.800,232.894 606.800 C 233.612 606.801,235.460 607.056,237.000 607.369 C 248.931 609.789,274.767 608.515,289.800 604.763 C 291.560 604.324,293.630 603.808,294.400 603.617 C 295.886 603.249,301.257 601.405,302.600 600.802 C 303.040 600.605,304.300 600.056,305.400 599.582 C 327.034 590.259,344.602 571.466,352.685 549.000 C 353.556 546.580,354.495 543.970,354.773 543.200 C 355.051 542.430,355.427 541.170,355.609 540.400 C 355.791 539.630,356.289 537.650,356.715 536.000 C 357.519 532.891,358.393 528.008,359.258 521.800 C 360.110 515.689,360.230 455.081,359.398 451.200 C 355.650 433.707,339.883 421.001,324.598 423.157 C 323.059 423.374,320.215 423.663,318.277 423.798 L 314.755 424.045 311.677 421.090 C 303.292 413.039,293.995 410.599,283.114 413.594 L 279.628 414.554 277.114 412.164 C 268.460 403.940,256.483 399.898,247.590 402.202 C 244.997 402.874,243.539 402.582,242.824 401.245 C 242.536 400.706,242.397 390.247,242.390 368.526 C 242.379 333.083,242.566 335.754,239.673 329.600 C 236.436 322.713,229.874 316.331,222.600 312.994 C 220.324 311.950,219.250 311.596,216.000 310.820 C 213.946 310.330,205.974 310.113,201.600 310.429 M214.378 339.546 C 216.778 340.620,219.595 343.418,219.619 344.750 C 219.629 345.328,219.674 370.010,219.719 399.600 L 219.800 453.400 220.723 455.683 C 223.339 462.160,232.834 463.809,238.562 458.780 C 241.659 456.061,242.366 452.667,242.386 440.435 C 242.400 431.995,242.415 431.845,243.417 430.135 C 246.982 424.051,256.229 422.519,260.877 427.243 L 262.755 429.150 262.877 447.075 L 263.000 465.000 264.075 466.828 C 265.040 468.470,266.425 469.651,269.095 471.111 C 272.036 472.719,278.562 471.102,281.273 468.092 C 283.418 465.712,283.595 464.580,283.598 453.286 C 283.600 442.322,283.563 442.530,285.973 439.863 C 290.414 434.949,300.680 436.982,302.382 443.112 C 302.620 443.969,302.796 449.277,302.798 455.628 L 302.800 466.656 304.240 468.338 C 308.129 472.882,315.672 472.761,318.953 468.102 C 320.096 466.479,320.108 466.405,320.276 459.532 C 320.370 455.720,320.644 452.060,320.886 451.400 C 323.237 444.986,333.129 444.224,337.100 450.150 L 338.400 452.090 338.400 485.663 C 338.400 513.127,338.297 519.687,337.836 521.718 C 337.525 523.083,337.047 525.460,336.772 527.000 C 336.331 529.476,334.964 534.053,333.007 539.600 C 327.195 556.081,311.134 573.348,295.265 580.176 C 287.978 583.312,283.522 584.213,266.400 586.009 C 259.233 586.761,238.944 586.063,233.600 584.881 C 232.610 584.662,230.360 584.167,228.600 583.782 C 206.754 578.998,192.030 568.952,179.092 550.000 C 176.273 545.871,166.464 531.122,162.332 524.800 C 152.156 509.231,147.544 502.072,144.247 496.727 C 138.245 486.999,139.169 479.207,146.326 479.201 C 151.344 479.198,156.567 482.992,171.986 497.844 C 177.830 503.472,180.259 505.561,181.564 506.081 C 186.395 508.007,191.557 506.028,193.742 501.413 L 194.800 499.178 194.800 423.438 C 194.800 339.882,194.589 346.795,197.256 342.918 C 200.127 338.746,208.784 337.041,214.378 339.546 " stroke="none" fill="#046123" fill-rule="evenodd"></path><path id="path2" d="M83.272 23.687 C 81.882 23.902,80.837 24.170,80.950 24.283 C 81.063 24.397,82.651 24.277,84.478 24.018 C 88.019 23.515,315.746 23.619,319.000 24.125 L 320.600 24.374 319.200 23.905 C 317.385 23.298,87.172 23.085,83.272 23.687 M75.600 25.033 C 74.294 25.568,74.280 25.590,75.400 25.371 C 76.060 25.242,77.500 24.996,78.600 24.824 L 80.600 24.513 78.800 24.487 C 77.810 24.473,76.370 24.719,75.600 25.033 M322.600 24.824 C 323.700 24.996,325.140 25.248,325.800 25.384 C 326.673 25.565,326.563 25.466,325.400 25.022 C 324.520 24.687,323.080 24.435,322.200 24.462 C 320.609 24.512,320.611 24.514,322.600 24.824 M71.487 25.846 C 71.351 25.982,70.646 26.247,69.920 26.435 C 68.102 26.907,70.274 26.607,72.600 26.065 C 74.105 25.714,74.127 25.689,72.967 25.646 C 72.288 25.621,71.622 25.711,71.487 25.846 M329.000 26.209 C 331.615 26.935,332.724 26.912,330.400 26.179 C 329.410 25.867,328.240 25.622,327.800 25.633 C 327.360 25.645,327.900 25.904,329.000 26.209 M66.400 27.425 C 65.509 27.762,65.291 27.958,65.800 27.963 C 66.240 27.968,67.050 27.714,67.600 27.400 C 68.822 26.701,68.283 26.713,66.400 27.425 M332.433 26.956 C 332.525 27.042,333.410 27.387,334.400 27.724 C 335.390 28.060,336.560 28.469,337.000 28.631 C 337.440 28.794,337.688 28.802,337.551 28.648 C 337.266 28.328,333.203 26.800,332.639 26.800 C 332.434 26.800,332.342 26.870,332.433 26.956 M62.200 28.991 C 61.100 29.509,60.380 29.937,60.600 29.942 C 60.820 29.947,61.900 29.527,63.000 29.009 C 64.100 28.491,64.820 28.063,64.600 28.058 C 64.380 28.053,63.300 28.473,62.200 28.991 M338.800 29.400 C 339.350 29.714,339.980 29.972,340.200 29.972 C 340.420 29.972,340.150 29.714,339.600 29.400 C 339.050 29.086,338.420 28.828,338.200 28.828 C 337.980 28.828,338.250 29.086,338.800 29.400 M56.250 31.455 C 54.737 32.213,53.567 32.900,53.650 32.983 C 53.732 33.066,55.240 32.435,57.000 31.582 C 58.760 30.728,59.930 30.041,59.600 30.054 C 59.270 30.067,57.762 30.698,56.250 31.455 M344.480 31.991 C 358.364 39.070,371.409 51.216,378.874 64.015 C 380.018 65.976,381.014 67.520,381.087 67.446 C 381.258 67.276,378.769 62.857,376.893 60.000 C 371.848 52.318,362.380 42.870,354.000 37.156 C 349.655 34.193,342.018 29.990,341.008 30.006 C 340.783 30.010,342.346 30.903,344.480 31.991 M51.600 33.894 C 45.276 38.016,43.372 39.339,40.800 41.396 C 31.302 48.992,23.992 58.043,18.341 69.200 C 16.837 72.170,15.605 74.823,15.603 75.096 C 15.601 75.368,15.128 76.771,14.551 78.213 C 13.973 79.655,13.588 80.921,13.693 81.027 C 13.799 81.133,14.380 79.820,14.984 78.110 C 17.854 69.981,22.217 62.181,28.470 54.000 C 32.867 48.246,42.617 39.855,50.652 34.908 C 52.163 33.977,53.220 33.222,53.000 33.229 C 52.780 33.236,52.150 33.535,51.600 33.894 M381.200 68.139 C 381.200 68.215,381.472 68.822,381.805 69.489 C 382.137 70.155,383.122 72.388,383.993 74.450 C 384.864 76.513,385.582 77.997,385.588 77.749 C 385.600 77.299,384.839 75.274,383.803 72.999 C 383.503 72.339,382.890 70.944,382.443 69.899 C 381.766 68.322,381.200 67.519,381.200 68.139 M186.600 71.486 C 185.674 71.710,184.133 73.043,183.463 74.200 C 183.158 74.728,182.932 78.739,182.800 85.995 L 182.600 96.990 180.572 97.281 C 179.456 97.442,178.106 97.763,177.572 97.995 C 176.656 98.393,176.669 98.405,177.800 98.201 C 178.460 98.082,179.720 97.873,180.600 97.738 C 183.300 97.323,183.200 97.768,183.200 86.131 C 183.200 70.666,181.956 71.837,198.541 71.689 C 216.501 71.530,215.600 70.763,215.600 86.210 C 215.600 94.128,215.723 96.798,216.100 97.093 C 216.648 97.522,220.042 98.423,220.877 98.361 C 221.165 98.340,220.230 98.016,218.800 97.641 L 216.200 96.960 216.000 86.180 C 215.706 70.349,216.632 71.179,199.346 71.246 C 192.775 71.272,187.040 71.380,186.600 71.486 M385.760 79.200 C 385.912 79.750,386.301 81.100,386.624 82.200 C 386.946 83.300,387.312 84.830,387.436 85.600 C 387.560 86.370,387.899 88.080,388.189 89.400 C 389.621 95.914,389.666 99.988,389.467 205.800 C 389.360 262.780,389.185 310.660,389.078 312.200 L 388.883 315.000 389.289 312.400 C 389.552 310.715,389.760 273.079,389.880 205.400 C 390.065 100.476,390.030 96.955,388.723 90.000 C 388.496 88.790,388.164 86.990,387.987 86.000 C 387.549 83.564,386.162 78.823,385.786 78.479 C 385.619 78.325,385.607 78.650,385.760 79.200 M12.899 83.190 C 12.196 85.442,12.313 86.158,13.043 84.073 C 13.376 83.123,13.592 82.176,13.523 81.969 C 13.454 81.761,13.173 82.311,12.899 83.190 M11.661 88.250 C 11.365 89.598,11.209 91.038,11.315 91.450 C 11.427 91.888,11.527 91.648,11.554 90.874 C 11.579 90.144,11.791 89.190,12.025 88.754 C 12.258 88.318,12.393 87.474,12.325 86.880 C 12.235 86.100,12.050 86.480,11.661 88.250 M10.444 95.614 C 10.170 97.256,10.010 100.580,10.088 103.000 L 10.230 107.400 10.315 102.520 C 10.362 99.836,10.595 96.730,10.833 95.619 C 11.071 94.508,11.194 93.381,11.105 93.114 C 11.015 92.846,10.718 93.972,10.444 95.614 M172.800 99.033 C 171.306 99.645,172.217 99.567,174.800 98.863 C 175.920 98.558,176.000 98.480,175.200 98.471 C 174.650 98.466,173.570 98.719,172.800 99.033 M223.000 98.811 C 223.880 98.982,225.050 99.240,225.600 99.383 C 226.238 99.549,226.112 99.419,225.254 99.022 C 224.514 98.680,223.344 98.423,222.654 98.450 C 221.485 98.497,221.508 98.521,223.000 98.811 M168.200 100.211 C 167.317 100.502,166.958 100.750,167.400 100.763 C 167.840 100.777,168.920 100.529,169.800 100.212 C 171.797 99.492,170.382 99.492,168.200 100.211 M228.800 100.221 C 231.149 100.961,232.272 100.935,230.200 100.188 C 229.320 99.871,228.240 99.621,227.800 99.633 C 227.360 99.644,227.810 99.909,228.800 100.221 M163.929 101.550 C 162.900 101.907,161.925 102.335,161.762 102.500 C 161.600 102.665,161.209 102.800,160.894 102.800 C 160.147 102.800,153.914 105.953,151.090 107.760 C 143.946 112.329,136.686 119.954,133.454 126.280 C 132.119 128.893,132.865 128.037,134.900 124.621 C 140.510 115.203,150.836 106.932,162.400 102.594 C 166.555 101.035,167.740 100.226,163.929 101.550 M232.400 101.175 C 232.903 101.469,236.072 102.652,239.400 103.787 C 240.176 104.052,240.177 104.046,239.430 103.571 C 238.708 103.112,232.445 100.786,232.003 100.812 C 231.891 100.819,232.070 100.982,232.400 101.175 M241.200 104.600 C 242.515 105.352,243.164 105.360,242.176 104.613 C 241.749 104.290,241.130 104.026,240.800 104.027 C 240.452 104.028,240.620 104.268,241.200 104.600 M243.233 105.353 C 243.325 105.437,245.200 106.445,247.400 107.593 C 253.319 110.681,255.555 112.145,262.385 117.408 C 269.856 123.164,270.095 124.076,265.500 129.277 C 263.905 131.082,260.640 134.909,258.245 137.780 C 250.877 146.612,250.181 147.200,247.080 147.200 C 245.445 147.200,239.599 144.234,237.200 142.187 C 235.647 140.862,224.539 135.200,223.494 135.200 C 223.222 135.200,224.170 135.745,225.600 136.411 C 230.658 138.767,232.406 139.739,240.951 144.948 C 248.533 149.569,248.821 149.448,259.273 137.248 C 270.574 124.057,270.449 124.315,267.180 120.974 C 264.959 118.704,257.642 113.163,253.400 110.538 C 248.964 107.794,242.051 104.268,243.233 105.353 M132.265 128.694 C 131.891 129.300,130.830 132.563,130.964 132.697 C 131.035 132.768,131.312 132.235,131.580 131.513 C 131.847 130.791,132.244 129.867,132.461 129.461 C 132.853 128.726,132.676 128.031,132.265 128.694 M196.500 130.691 C 197.325 130.778,198.675 130.778,199.500 130.691 C 200.325 130.605,199.650 130.534,198.000 130.534 C 196.350 130.534,195.675 130.605,196.500 130.691 M187.000 131.446 L 185.400 132.008 187.000 131.748 C 187.880 131.605,189.950 131.363,191.600 131.210 L 194.600 130.932 191.600 130.908 C 189.950 130.895,187.880 131.137,187.000 131.446 M205.200 131.210 C 207.070 131.360,209.320 131.598,210.200 131.740 C 211.606 131.966,211.558 131.926,209.800 131.406 C 208.689 131.078,206.466 130.843,204.800 130.877 L 201.800 130.938 205.200 131.210 M182.210 132.666 C 174.799 135.334,167.453 142.087,167.622 146.075 C 167.635 146.364,167.952 145.880,168.327 145.000 C 170.762 139.286,175.621 135.259,183.000 132.838 C 184.320 132.405,185.040 132.060,184.600 132.072 C 184.160 132.084,183.084 132.351,182.210 132.666 M214.200 132.609 C 215.300 132.915,216.560 133.160,217.000 133.155 C 217.440 133.150,216.900 132.896,215.800 132.591 C 214.700 132.285,213.440 132.040,213.000 132.045 C 212.560 132.050,213.100 132.304,214.200 132.609 M130.446 133.876 C 130.421 134.358,130.220 134.864,130.000 135.000 C 129.780 135.136,129.607 135.552,129.616 135.924 C 129.627 136.376,129.834 136.228,130.241 135.477 C 130.576 134.859,130.769 134.049,130.671 133.677 C 130.541 133.182,130.480 133.236,130.446 133.876 M218.083 133.416 C 218.478 133.812,222.545 135.188,222.741 134.993 C 222.847 134.887,222.856 134.800,222.761 134.800 C 222.666 134.800,221.604 134.440,220.400 134.000 C 218.092 133.156,217.732 133.066,218.083 133.416 M128.863 139.462 C 128.569 140.789,128.410 142.308,128.509 142.837 C 128.642 143.537,128.706 143.407,128.746 142.360 C 128.775 141.568,128.995 140.361,129.233 139.678 C 129.471 138.995,129.606 138.124,129.532 137.743 C 129.459 137.361,129.158 138.135,128.863 139.462 M127.857 145.900 C 127.532 147.863,127.583 157.693,127.930 160.000 C 128.078 160.990,128.200 157.885,128.200 153.100 C 128.200 148.315,128.179 144.400,128.152 144.400 C 128.126 144.400,127.993 145.075,127.857 145.900 M167.272 150.264 C 167.189 154.475,167.929 156.947,170.209 160.079 C 171.948 162.467,178.313 167.187,179.800 167.191 C 180.020 167.192,179.210 166.627,178.000 165.936 C 170.653 161.739,168.054 157.908,167.595 150.600 L 167.345 146.600 167.272 150.264 M128.474 163.400 C 128.453 164.280,128.701 165.900,129.025 167.000 C 129.547 168.770,129.586 168.816,129.362 167.400 C 129.223 166.520,128.975 164.900,128.811 163.800 C 128.519 161.842,128.512 161.833,128.474 163.400 M180.620 167.560 C 181.123 168.037,186.877 170.456,187.064 170.269 C 187.144 170.189,185.992 169.618,184.505 169.000 C 183.017 168.381,181.629 167.723,181.420 167.538 C 180.896 167.072,180.128 167.094,180.620 167.560 M129.626 169.400 C 129.389 175.820,141.275 189.855,151.927 195.731 C 158.673 199.452,173.266 205.511,174.495 205.102 C 174.701 205.033,173.369 204.477,171.535 203.867 C 151.132 197.077,136.431 186.135,131.674 174.200 C 131.236 173.100,130.599 171.480,130.259 170.600 C 129.919 169.720,129.635 169.180,129.626 169.400 M188.200 170.689 C 188.640 170.798,189.180 171.026,189.400 171.197 C 189.620 171.368,190.430 171.639,191.200 171.800 C 191.970 171.961,192.816 172.266,193.081 172.479 C 193.345 172.692,193.872 172.806,194.251 172.733 C 194.973 172.594,188.797 170.366,187.911 170.446 C 187.630 170.472,187.760 170.581,188.200 170.689 M195.790 173.282 C 196.224 173.534,197.214 173.879,197.990 174.050 C 198.765 174.220,200.300 174.630,201.400 174.961 C 202.500 175.292,203.850 175.669,204.400 175.798 C 206.004 176.175,202.827 174.964,200.200 174.197 C 198.880 173.812,197.387 173.340,196.881 173.148 C 195.571 172.652,194.854 172.740,195.790 173.282 M207.000 176.612 C 207.880 176.929,208.870 177.183,209.200 177.176 C 209.530 177.170,209.080 176.905,208.200 176.588 C 207.320 176.271,206.330 176.017,206.000 176.024 C 205.670 176.030,206.120 176.295,207.000 176.612 M211.146 177.778 C 211.886 178.120,212.876 178.382,213.346 178.359 C 213.991 178.328,213.906 178.238,213.000 177.989 C 210.103 177.196,209.815 177.163,211.146 177.778 M215.200 178.958 C 215.750 179.296,216.650 179.560,217.200 179.545 C 218.115 179.520,218.098 179.492,217.000 179.209 C 216.340 179.038,215.440 178.774,215.000 178.622 C 214.469 178.438,214.536 178.551,215.200 178.958 M218.400 179.765 C 218.400 179.997,223.454 181.606,224.084 181.575 C 224.368 181.561,223.250 181.111,221.600 180.575 C 218.313 179.507,218.400 179.529,218.400 179.765 M225.286 182.024 C 225.872 182.366,227.206 182.835,232.600 184.599 C 233.229 184.805,233.270 184.775,232.790 184.461 C 232.455 184.241,231.015 183.678,229.590 183.209 C 228.166 182.741,226.687 182.187,226.305 181.979 C 225.367 181.467,224.404 181.510,225.286 182.024 M235.400 185.632 C 239.904 187.409,247.816 191.265,251.441 193.451 C 261.215 199.344,269.646 208.839,271.642 216.200 C 271.821 216.860,272.258 218.390,272.614 219.600 C 272.970 220.810,273.404 222.700,273.580 223.800 C 273.887 225.718,273.902 225.737,273.950 224.262 C 274.026 221.930,272.337 216.240,270.426 212.389 C 265.415 202.288,255.314 193.786,241.000 187.618 C 239.900 187.144,238.640 186.594,238.200 186.396 C 236.267 185.526,234.267 184.802,233.851 184.822 C 233.603 184.834,234.300 185.199,235.400 185.632 M175.635 205.556 C 175.984 205.782,176.974 206.147,177.835 206.367 C 178.696 206.587,180.300 207.036,181.400 207.365 C 182.500 207.694,183.850 208.067,184.400 208.194 C 186.156 208.599,183.240 207.355,181.200 206.828 C 180.210 206.573,178.860 206.204,178.200 206.009 C 175.559 205.228,174.967 205.124,175.635 205.556 M189.800 209.627 C 192.220 210.298,195.100 211.096,196.200 211.401 C 197.300 211.706,199.166 212.235,200.346 212.578 C 201.526 212.920,202.843 213.200,203.272 213.200 C 203.701 213.200,204.411 213.392,204.848 213.626 C 205.286 213.860,205.839 213.987,206.076 213.908 C 206.529 213.757,205.146 213.309,200.800 212.200 C 199.370 211.835,197.300 211.286,196.200 210.981 C 190.907 209.513,187.694 208.703,186.600 208.562 C 185.940 208.476,187.380 208.956,189.800 209.627 M208.200 214.565 C 209.080 214.855,210.970 215.468,212.400 215.928 C 227.951 220.926,233.745 226.317,233.761 235.800 C 233.775 244.168,229.077 249.830,219.646 252.810 C 218.681 253.114,218.112 253.437,218.381 253.527 C 219.048 253.749,223.752 251.742,226.200 250.190 C 235.419 244.344,237.176 232.188,229.872 224.777 C 225.990 220.837,221.250 218.333,212.400 215.544 C 210.970 215.094,209.387 214.562,208.881 214.362 C 208.376 214.163,207.656 214.009,207.281 214.019 C 206.907 214.030,207.320 214.275,208.200 214.565 M274.183 233.600 L 274.167 241.400 274.532 236.710 C 274.745 233.983,274.751 230.718,274.549 228.910 C 274.253 226.276,274.197 226.994,274.183 233.600 M143.379 236.989 C 142.290 237.533,140.668 238.748,139.773 239.689 C 128.592 251.450,124.000 256.519,124.001 257.101 C 124.002 257.569,124.260 257.378,124.783 256.521 C 125.212 255.818,128.337 252.308,131.729 248.721 C 145.506 234.151,144.648 234.441,154.600 241.003 C 163.592 246.933,169.549 250.033,175.000 251.618 C 175.660 251.810,177.190 252.262,178.400 252.623 C 179.610 252.984,181.050 253.358,181.600 253.454 C 182.724 253.651,180.133 252.733,176.800 251.754 C 175.590 251.398,174.240 250.957,173.800 250.773 C 173.360 250.590,171.470 249.819,169.600 249.060 C 165.273 247.304,161.478 245.151,155.200 240.890 C 147.609 235.739,146.567 235.395,143.379 236.989 M273.519 243.400 C 273.375 244.500,273.153 246.030,273.026 246.800 C 272.851 247.856,272.948 247.725,273.419 246.266 C 273.763 245.202,273.985 243.672,273.912 242.866 C 273.787 241.472,273.767 241.498,273.519 243.400 M271.850 250.737 C 269.191 260.213,258.383 273.129,248.200 278.999 C 245.336 280.650,239.338 283.600,238.845 283.600 C 238.449 283.600,236.198 284.495,234.714 285.244 C 234.336 285.434,233.256 285.784,232.314 286.021 C 228.605 286.953,228.143 287.115,229.081 287.159 C 229.854 287.195,232.208 286.450,238.755 284.099 C 251.202 279.630,264.918 267.297,270.183 255.841 C 272.018 251.849,273.045 248.912,272.720 248.587 C 272.606 248.472,272.214 249.440,271.850 250.737 M185.200 254.190 C 186.190 254.519,187.630 254.767,188.400 254.740 C 189.734 254.695,189.716 254.678,188.000 254.366 C 183.645 253.574,183.277 253.551,185.200 254.190 M216.250 253.883 C 216.094 254.039,215.119 254.285,214.083 254.430 C 212.347 254.673,212.314 254.697,213.654 254.747 C 214.454 254.776,215.714 254.537,216.454 254.216 C 217.194 253.894,217.515 253.624,217.167 253.616 C 216.818 253.607,216.406 253.728,216.250 253.883 M192.000 255.280 C 194.277 255.822,208.997 255.816,210.600 255.273 C 211.503 254.966,211.007 254.932,208.600 255.133 C 204.477 255.477,197.917 255.474,193.600 255.126 C 190.717 254.893,190.474 254.917,192.000 255.280 M124.001 260.518 C 124.001 260.913,126.454 263.745,129.453 266.811 C 135.760 273.258,139.117 275.740,147.800 280.374 C 151.645 282.427,161.806 286.327,162.222 285.911 C 162.309 285.824,160.900 285.255,159.090 284.648 C 157.281 284.040,155.440 283.386,155.000 283.194 C 154.560 283.001,153.300 282.464,152.200 282.000 C 142.017 277.704,128.728 267.548,124.746 261.018 C 124.216 260.149,124.003 260.006,124.001 260.518 M164.200 286.580 C 165.080 286.915,166.250 287.172,166.800 287.153 C 167.630 287.124,167.562 287.052,166.400 286.732 C 163.713 285.990,162.408 285.900,164.200 286.580 M169.600 287.788 C 170.590 288.118,172.182 288.391,173.138 288.394 C 177.428 288.409,177.588 288.850,177.595 300.717 L 177.600 310.034 175.888 311.917 C 170.834 317.477,164.153 327.200,165.387 327.200 C 165.497 327.200,166.059 326.267,166.637 325.126 C 168.044 322.351,169.954 319.605,172.932 316.075 C 174.289 314.466,175.985 312.427,176.700 311.544 L 178.000 309.938 178.000 300.343 C 178.000 288.488,178.022 288.539,172.800 287.934 C 171.370 287.769,169.660 287.533,169.000 287.410 C 168.340 287.288,168.610 287.457,169.600 287.788 M225.400 287.690 C 220.370 288.911,220.717 289.675,230.732 299.437 C 245.763 314.088,249.906 320.597,253.366 335.000 C 253.683 336.320,253.955 336.992,253.971 336.493 C 254.003 335.486,252.739 330.538,251.775 327.900 C 251.434 326.965,250.998 325.706,250.806 325.103 C 248.670 318.378,243.439 311.491,231.440 299.605 C 221.690 289.947,221.084 288.950,224.600 288.340 C 226.316 288.043,228.595 287.234,227.600 287.276 C 227.270 287.290,226.280 287.476,225.400 287.690 M10.097 302.800 C 10.067 306.161,10.264 309.182,10.618 310.800 C 10.953 312.328,11.089 312.658,10.949 311.600 C 10.818 310.610,10.583 307.010,10.427 303.600 L 10.144 297.400 10.097 302.800 M201.081 310.009 C 188.221 311.235,171.710 327.780,172.031 339.120 C 172.047 339.714,172.372 338.760,172.751 337.000 C 174.466 329.046,181.464 319.859,190.090 314.237 C 195.356 310.805,197.522 310.322,207.800 310.285 C 212.921 310.267,214.249 310.178,212.400 309.977 C 209.104 309.618,205.065 309.629,201.081 310.009 M216.200 310.815 C 216.860 310.998,218.030 311.316,218.800 311.521 C 226.789 313.647,235.872 321.515,239.673 329.600 C 242.566 335.754,242.379 333.083,242.390 368.526 C 242.397 390.247,242.536 400.706,242.824 401.245 C 243.539 402.582,244.997 402.874,247.590 402.202 C 256.483 399.898,268.460 403.940,277.114 412.164 L 279.628 414.554 283.114 413.594 C 293.995 410.599,303.292 413.039,311.677 421.090 L 314.755 424.045 318.277 423.798 C 320.215 423.663,323.059 423.374,324.598 423.157 C 336.499 421.479,350.634 430.008,356.607 442.471 C 357.373 444.070,358.000 445.143,358.000 444.856 C 358.000 444.124,355.416 439.057,353.970 436.956 C 349.344 430.233,338.400 423.209,332.533 423.198 C 331.910 423.197,330.680 422.994,329.800 422.749 C 328.631 422.422,327.176 422.419,324.400 422.736 C 322.310 422.975,319.297 423.278,317.704 423.409 L 314.807 423.648 311.104 420.123 C 303.316 412.713,293.619 410.163,283.979 412.992 C 279.501 414.306,279.719 414.350,276.987 411.574 C 269.345 403.808,256.635 399.596,247.457 401.788 C 244.934 402.391,243.490 402.132,243.055 400.998 C 242.915 400.633,242.800 385.981,242.800 368.439 C 242.800 333.470,242.942 335.711,240.370 330.133 C 236.720 322.217,229.697 315.466,221.800 312.279 C 218.497 310.946,216.681 310.393,215.772 310.441 C 215.282 310.467,215.439 310.604,216.200 310.815 M11.264 315.200 C 11.248 315.750,11.501 317.100,11.825 318.200 C 12.232 319.578,12.350 319.765,12.205 318.800 C 11.796 316.075,11.293 314.153,11.264 315.200 M388.008 317.469 C 383.620 339.547,370.455 358.306,351.073 370.098 C 349.353 371.144,347.874 372.000,347.786 372.000 C 347.698 372.000,346.215 372.689,344.491 373.532 C 342.768 374.374,340.377 375.401,339.179 375.814 C 337.980 376.227,336.813 376.699,336.584 376.862 C 336.356 377.025,335.456 377.332,334.584 377.545 C 333.713 377.758,331.740 378.292,330.200 378.732 C 328.660 379.172,326.950 379.613,326.400 379.712 C 325.440 379.884,325.445 379.893,326.525 379.946 C 327.144 379.975,328.584 379.719,329.725 379.376 C 330.866 379.033,332.520 378.553,333.400 378.310 C 349.739 373.793,366.180 361.781,375.981 347.200 C 376.943 345.770,378.060 344.112,378.465 343.516 C 378.869 342.920,379.200 342.360,379.200 342.272 C 379.200 342.183,379.894 340.849,380.741 339.307 C 383.848 333.655,386.489 326.205,388.408 317.676 C 388.671 316.508,388.793 315.459,388.679 315.345 C 388.565 315.231,388.263 316.187,388.008 317.469 M12.433 320.800 C 12.421 321.130,12.667 322.210,12.979 323.200 C 13.291 324.190,13.556 324.730,13.567 324.400 C 13.579 324.070,13.333 322.990,13.021 322.000 C 12.709 321.010,12.444 320.470,12.433 320.800 M13.600 325.239 C 13.600 325.581,15.173 329.707,15.384 329.917 C 15.733 330.267,15.644 329.909,14.816 327.644 C 14.126 325.757,13.600 324.716,13.600 325.239 M164.670 328.210 C 164.521 328.645,164.291 329.270,164.158 329.600 C 164.026 329.930,164.219 329.790,164.588 329.290 C 164.958 328.789,165.188 328.164,165.100 327.900 C 165.010 327.631,164.822 327.767,164.670 328.210 M15.618 330.729 C 15.588 331.614,19.972 340.393,22.146 343.800 C 26.801 351.096,33.456 358.608,39.600 363.502 C 41.030 364.641,42.740 366.002,43.400 366.526 C 50.096 371.841,69.887 380.205,75.164 379.950 C 75.911 379.914,75.754 379.813,74.600 379.588 C 49.171 374.630,27.655 357.168,16.706 332.600 C 16.118 331.280,15.629 330.438,15.618 330.729 M163.285 331.373 C 163.018 331.959,162.807 332.744,162.816 333.119 C 162.824 333.493,163.099 333.184,163.426 332.430 C 164.127 330.814,163.994 329.817,163.285 331.373 M162.080 335.328 C 161.816 336.059,161.621 337.184,161.646 337.828 C 161.690 338.958,161.703 338.950,161.990 337.600 C 162.153 336.830,162.422 335.705,162.587 335.100 C 163.005 333.568,162.661 333.722,162.080 335.328 M254.243 340.000 C 254.358 341.210,254.576 350.879,254.726 361.486 C 254.978 379.251,255.056 380.829,255.714 381.486 C 256.385 382.157,258.029 382.201,282.714 382.210 L 309.000 382.220 282.800 382.003 C 268.390 381.883,256.568 381.744,256.529 381.693 C 256.489 381.642,256.174 381.317,255.829 380.971 C 255.276 380.419,255.198 378.170,255.183 362.471 C 255.170 348.994,255.027 343.764,254.600 341.200 C 254.285 339.310,254.127 338.777,254.243 340.000 M206.291 338.689 C 207.001 338.777,208.261 338.779,209.091 338.692 C 209.921 338.605,209.340 338.533,207.800 338.531 C 206.260 338.529,205.581 338.600,206.291 338.689 M200.522 339.999 C 198.386 341.224,196.600 343.390,195.443 346.158 C 194.860 347.554,194.800 354.748,194.800 423.438 L 194.800 499.178 193.742 501.413 C 191.557 506.028,186.395 508.007,181.564 506.081 C 180.259 505.561,177.830 503.472,171.986 497.844 C 156.567 482.992,151.344 479.198,146.326 479.201 C 141.964 479.205,140.267 481.206,140.497 486.076 C 140.769 491.838,140.645 491.619,162.332 524.800 C 166.464 531.122,176.273 545.871,179.092 550.000 C 192.030 568.952,206.754 578.998,228.600 583.782 C 230.360 584.167,232.610 584.662,233.600 584.881 C 238.944 586.063,259.233 586.761,266.400 586.009 C 283.522 584.213,287.978 583.312,295.265 580.176 C 311.134 573.348,327.198 556.077,333.007 539.600 C 335.766 531.774,337.237 526.408,337.154 524.475 C 337.120 523.705,337.062 523.627,336.949 524.200 C 335.845 529.773,335.720 530.257,334.039 535.400 C 328.012 553.836,315.345 568.964,298.151 578.261 C 294.679 580.138,289.067 582.232,286.000 582.794 C 285.010 582.975,283.210 583.314,282.000 583.546 C 270.586 585.736,257.154 586.414,244.151 585.458 C 239.504 585.117,234.914 584.667,233.951 584.460 C 232.988 584.253,230.760 583.778,229.000 583.406 C 213.275 580.081,200.599 573.451,190.398 563.217 C 183.780 556.576,179.984 551.238,159.809 520.200 C 158.522 518.220,156.176 514.620,154.596 512.200 C 142.113 493.080,140.800 490.552,140.800 485.633 L 140.800 482.493 142.401 481.047 C 144.471 479.177,147.218 479.036,150.685 480.622 C 155.035 482.611,156.663 483.975,171.438 498.000 C 181.591 507.638,183.900 508.719,189.214 506.320 C 191.694 505.200,193.190 503.642,194.389 500.931 C 195.194 499.111,195.200 498.566,195.200 423.333 L 195.200 347.568 196.055 345.893 C 198.185 341.717,200.634 339.614,204.000 339.070 C 204.884 338.928,204.861 338.903,203.800 338.858 C 203.121 338.830,201.698 339.325,200.522 339.999 M212.000 339.176 C 215.012 339.786,218.261 342.160,219.152 344.400 C 219.514 345.312,219.552 345.326,219.575 344.550 C 219.631 342.662,214.181 338.736,211.656 338.846 C 210.769 338.885,210.824 338.937,212.000 339.176 M160.979 340.084 C 160.801 340.588,160.588 349.942,160.504 360.871 C 160.370 378.448,160.279 380.802,159.715 381.271 C 159.202 381.696,152.656 381.841,126.239 382.008 L 93.400 382.216 126.532 382.208 C 158.863 382.200,159.678 382.181,160.232 381.424 C 160.703 380.780,160.800 377.527,160.802 362.424 C 160.804 352.401,160.980 343.131,161.194 341.825 C 161.606 339.308,161.514 338.565,160.979 340.084 M171.699 403.473 C 171.601 465.654,171.591 466.349,170.811 466.596 C 169.954 466.868,168.440 466.045,163.800 462.783 C 153.401 455.472,143.079 454.365,132.502 459.427 C 122.154 464.379,115.389 478.474,118.213 489.200 C 118.532 490.410,118.698 490.770,118.582 490.000 C 115.438 469.064,131.930 452.761,151.518 457.441 C 153.871 458.003,155.137 458.472,158.587 460.060 C 159.938 460.682,162.965 462.645,167.400 465.776 C 169.519 467.272,170.814 467.547,171.552 466.658 C 171.883 466.259,171.975 449.410,171.900 403.358 L 171.797 340.600 171.699 403.473 M219.737 348.600 C 219.739 350.360,219.809 351.030,219.893 350.089 C 219.978 349.149,219.977 347.709,219.891 346.889 C 219.805 346.070,219.736 346.840,219.737 348.600 M78.000 380.615 C 78.990 380.911,82.140 381.355,85.000 381.600 C 87.860 381.846,90.920 382.123,91.800 382.215 C 93.026 382.344,93.166 382.307,92.400 382.055 C 91.850 381.874,88.790 381.500,85.600 381.224 C 82.410 380.947,79.278 380.559,78.640 380.360 C 78.002 380.162,77.192 380.017,76.840 380.038 C 76.488 380.059,77.010 380.319,78.000 380.615 M323.478 380.255 C 323.234 380.499,320.371 380.851,312.600 381.589 L 309.000 381.931 312.800 381.785 C 319.273 381.537,328.564 380.147,324.567 380.025 C 324.108 380.011,323.619 380.115,323.478 380.255 M250.433 424.880 C 244.140 426.283,242.404 429.639,242.386 440.435 C 242.362 454.898,241.174 458.325,235.308 460.839 C 228.059 463.947,220.802 459.760,219.987 452.000 L 219.714 449.400 219.657 451.587 C 219.412 460.996,230.534 465.512,238.679 459.311 C 241.898 456.860,242.490 454.298,242.773 441.600 C 242.994 431.691,243.027 431.362,243.947 430.072 C 245.225 428.280,248.533 425.714,249.894 425.459 C 254.594 424.578,257.559 424.937,259.895 426.671 C 262.232 428.407,262.183 428.023,262.409 446.200 L 262.617 463.000 262.709 446.156 L 262.800 429.313 261.188 427.481 C 258.779 424.745,255.067 423.847,250.433 424.880 M288.600 437.865 C 285.974 439.249,283.570 442.365,283.641 444.292 C 283.681 445.388,283.685 445.386,283.983 444.136 C 285.612 437.298,295.252 435.124,300.242 440.469 C 302.098 442.457,302.104 442.503,302.390 455.000 L 302.655 466.600 302.725 455.600 C 302.815 441.569,302.527 440.531,297.912 438.231 C 295.410 436.984,290.627 436.796,288.600 437.865 M358.238 446.200 C 358.384 446.640,358.658 447.810,358.847 448.800 C 359.441 451.922,359.914 453.496,359.959 452.506 C 360.014 451.303,359.239 448.080,358.539 446.600 C 358.227 445.940,358.091 445.760,358.238 446.200 M328.700 446.282 C 329.195 446.378,330.005 446.378,330.500 446.282 C 330.995 446.187,330.590 446.109,329.600 446.109 C 328.610 446.109,328.205 446.187,328.700 446.282 M325.000 446.865 C 321.938 448.551,320.372 451.338,320.459 454.949 L 320.517 457.400 320.782 454.536 C 321.130 450.768,322.427 448.723,325.326 447.374 C 326.467 446.842,327.040 446.412,326.600 446.416 C 326.160 446.421,325.440 446.623,325.000 446.865 M332.886 447.131 C 334.838 448.055,336.300 449.453,337.248 451.301 C 338.027 452.822,338.233 517.889,337.471 522.000 C 337.328 522.770,337.475 522.500,337.798 521.400 C 338.293 519.713,338.386 514.132,338.392 485.745 L 338.400 452.090 337.100 450.154 C 335.855 448.300,333.268 446.405,332.000 446.420 C 331.670 446.424,332.069 446.744,332.886 447.131 M283.724 452.200 C 283.726 453.520,283.801 454.012,283.890 453.293 C 283.979 452.574,283.977 451.494,283.886 450.893 C 283.795 450.292,283.722 450.880,283.724 452.200 M360.190 484.400 C 360.190 501.450,360.240 508.425,360.300 499.900 C 360.360 491.375,360.360 477.425,360.300 468.900 C 360.240 460.375,360.190 467.350,360.190 484.400 M320.377 459.700 C 320.232 465.274,320.000 466.615,318.914 468.158 C 315.672 472.761,308.105 472.854,304.240 468.338 C 302.602 466.425,302.290 466.584,303.798 468.562 C 307.700 473.677,316.939 473.065,319.846 467.499 C 320.430 466.383,321.139 458.800,320.660 458.800 C 320.517 458.800,320.390 459.205,320.377 459.700 M262.846 464.116 C 262.622 469.540,271.090 473.767,277.292 471.328 C 280.560 470.043,283.632 466.739,283.582 464.565 C 283.573 464.144,283.316 464.498,283.012 465.350 C 281.361 469.983,273.206 473.359,269.095 471.111 C 265.342 469.059,263.719 467.230,263.172 464.433 C 262.926 463.172,262.886 463.134,262.846 464.116 M118.831 492.000 C 118.734 495.020,123.580 503.684,140.200 530.198 C 142.620 534.058,144.950 537.798,145.378 538.508 C 167.546 575.323,180.474 588.931,202.400 598.527 C 206.053 600.126,209.833 601.600,210.279 601.600 C 210.551 601.600,211.364 601.852,212.086 602.161 C 212.809 602.469,214.480 603.034,215.800 603.417 C 217.120 603.800,218.650 604.252,219.200 604.423 C 219.750 604.593,221.640 605.028,223.400 605.390 C 225.160 605.751,227.632 606.306,228.894 606.623 C 230.156 606.941,231.776 607.200,232.494 607.200 C 233.212 607.201,235.060 607.453,236.600 607.761 C 241.699 608.781,257.482 609.387,265.066 608.855 C 278.667 607.901,288.028 606.217,297.800 602.966 C 322.222 594.841,343.677 574.820,351.773 552.600 C 352.173 551.500,352.737 550.060,353.026 549.400 C 353.752 547.739,355.603 542.221,355.586 541.770 C 355.563 541.180,354.430 543.336,354.413 544.000 C 354.384 545.184,350.713 554.289,348.446 558.800 C 339.390 576.827,323.690 591.700,305.400 599.582 C 304.300 600.056,303.040 600.605,302.600 600.802 C 301.257 601.405,295.886 603.249,294.400 603.617 C 293.630 603.808,291.560 604.324,289.800 604.763 C 274.767 608.515,248.931 609.789,237.000 607.369 C 235.460 607.056,233.612 606.801,232.894 606.800 C 232.176 606.800,230.556 606.542,229.294 606.226 C 228.032 605.910,225.920 605.442,224.600 605.187 C 223.280 604.932,221.356 604.470,220.325 604.162 C 219.294 603.853,218.175 603.600,217.838 603.600 C 217.502 603.600,216.636 603.352,215.914 603.049 C 215.191 602.745,213.520 602.170,212.200 601.771 C 190.171 595.102,173.061 581.059,157.543 556.912 C 149.495 544.390,146.357 539.420,141.558 531.600 C 139.735 528.630,137.109 524.446,135.722 522.303 C 134.335 520.160,133.200 518.332,133.200 518.241 C 133.200 518.149,131.827 515.853,130.149 513.137 C 128.470 510.422,126.640 507.391,126.082 506.403 C 125.523 505.415,124.491 503.705,123.788 502.603 C 122.257 500.205,120.578 496.612,119.580 493.600 C 119.179 492.390,118.842 491.670,118.831 492.000 M359.462 518.400 C 359.036 522.674,358.496 527.535,358.241 529.400 C 358.120 530.280,358.279 529.920,358.594 528.600 C 359.269 525.776,360.177 517.353,359.932 516.200 C 359.838 515.760,359.627 516.750,359.462 518.400 M357.501 532.600 C 357.344 533.480,357.116 534.740,356.993 535.400 C 356.843 536.211,356.978 536.040,357.409 534.873 C 357.761 533.924,357.989 532.664,357.917 532.073 C 357.807 531.166,357.743 531.247,357.501 532.600 M356.100 538.367 C 355.393 540.658,355.513 541.756,356.243 539.673 C 356.576 538.723,356.792 537.676,356.724 537.347 C 356.656 537.017,356.375 537.476,356.100 538.367 " stroke="none" fill="#599472" fill-rule="evenodd"></path><path id="path3" d="M82.445 23.232 C 81.479 23.422,80.579 23.697,80.445 23.843 C 80.310 23.990,80.740 23.959,81.400 23.775 C 82.060 23.591,134.710 23.374,198.400 23.292 C 320.832 23.135,318.619 23.109,325.200 24.821 C 325.970 25.022,327.860 25.473,329.400 25.825 C 354.375 31.523,379.042 54.809,386.364 79.600 C 386.851 81.250,387.418 83.013,387.625 83.519 C 387.831 84.024,387.998 84.834,387.997 85.319 C 387.995 85.803,388.257 87.370,388.579 88.800 C 388.901 90.230,389.353 92.939,389.582 94.821 C 390.171 99.643,390.162 306.060,389.573 310.779 C 385.086 346.724,360.133 373.601,324.800 380.548 C 316.932 382.095,315.405 382.164,285.844 382.300 L 256.688 382.434 255.744 381.547 L 254.800 380.661 254.795 363.830 C 254.787 336.214,253.005 327.360,245.091 315.600 C 242.107 311.166,241.952 310.994,231.752 300.764 C 222.491 291.476,222.346 291.305,222.472 289.813 L 222.600 288.298 225.800 287.534 C 231.658 286.136,236.635 284.588,237.380 283.934 C 237.589 283.750,237.997 283.600,238.287 283.600 C 242.978 283.600,258.697 271.873,264.826 263.800 C 274.356 251.246,276.981 230.780,271.068 215.131 C 270.055 212.451,269.842 212.052,267.258 208.000 C 261.193 198.492,247.341 189.635,229.000 183.540 C 227.680 183.102,226.240 182.589,225.800 182.402 C 225.360 182.214,223.920 181.756,222.600 181.384 C 221.280 181.012,219.480 180.477,218.600 180.196 C 217.720 179.914,215.920 179.370,214.600 178.986 C 213.280 178.602,211.750 178.147,211.200 177.976 C 210.650 177.804,209.120 177.363,207.800 176.996 C 206.480 176.628,204.680 176.102,203.800 175.826 C 202.920 175.549,201.120 175.004,199.800 174.614 C 180.891 169.024,171.663 164.164,168.948 158.365 C 165.400 150.789,166.516 144.154,172.297 138.462 C 176.597 134.227,184.165 131.113,191.200 130.683 L 193.400 130.548 190.920 130.474 C 187.325 130.367,182.324 131.755,177.333 134.246 C 164.355 140.722,162.718 156.392,174.166 164.561 C 178.598 167.723,182.844 169.625,192.200 172.638 C 195.280 173.630,198.340 174.628,199.000 174.856 C 199.660 175.084,200.740 175.427,201.400 175.619 C 202.060 175.810,203.500 176.233,204.600 176.557 C 206.648 177.161,210.460 178.234,212.600 178.808 C 213.260 178.985,214.340 179.318,215.000 179.547 C 215.660 179.777,218.090 180.533,220.400 181.228 C 222.710 181.922,225.590 182.837,226.800 183.262 C 228.010 183.686,230.080 184.398,231.400 184.845 C 232.720 185.292,234.160 185.813,234.600 186.003 C 235.040 186.193,237.380 187.169,239.800 188.172 C 265.487 198.817,275.888 215.172,273.268 240.800 C 272.918 244.218,272.597 245.846,271.272 250.922 C 268.583 261.219,256.255 274.525,243.800 280.575 C 236.011 284.358,234.248 284.988,225.634 287.071 C 219.215 288.623,219.634 289.692,230.932 300.590 C 251.444 320.377,254.384 328.339,254.395 364.118 L 254.400 380.836 255.382 381.818 L 256.364 382.800 285.082 382.803 C 309.321 382.805,314.455 382.706,318.000 382.169 C 328.337 380.603,331.793 379.721,340.965 376.310 C 360.533 369.031,379.033 349.562,385.918 329.000 C 388.947 319.957,389.625 316.419,390.364 305.800 C 390.891 298.215,390.923 103.981,390.397 98.600 C 390.183 96.400,389.910 93.700,389.792 92.600 C 387.110 67.682,367.905 41.730,344.000 30.720 C 342.790 30.162,340.980 29.327,339.978 28.864 C 335.634 26.856,328.386 24.899,319.800 23.416 C 315.739 22.715,85.985 22.537,82.445 23.232 M74.800 24.600 C 74.030 24.897,72.913 25.153,72.319 25.170 C 71.724 25.186,70.824 25.366,70.319 25.568 C 69.813 25.770,68.410 26.226,67.200 26.582 C 62.605 27.931,53.752 31.890,50.480 34.060 C 49.534 34.687,48.675 35.200,48.570 35.200 C 48.466 35.200,47.530 35.786,46.490 36.503 C 33.957 45.142,23.797 56.691,17.675 69.255 C 15.649 73.415,15.253 74.392,13.647 79.200 C 11.779 84.790,11.213 87.086,10.985 90.000 C 10.837 91.888,10.930 91.608,11.647 88.000 C 17.057 60.772,39.293 36.075,66.200 27.410 C 70.787 25.932,76.500 24.510,78.800 24.273 C 79.802 24.169,79.632 24.118,78.200 24.094 C 77.100 24.076,75.570 24.303,74.800 24.600 M186.965 71.964 C 183.588 72.807,183.437 73.387,183.200 86.365 L 183.000 97.331 180.400 97.883 C 178.970 98.187,176.990 98.588,176.000 98.773 C 172.408 99.447,164.852 101.632,162.200 102.763 C 161.760 102.951,160.590 103.433,159.600 103.835 C 150.135 107.680,139.163 116.975,134.855 124.800 C 125.726 141.383,125.748 166.472,134.905 179.979 C 136.734 182.678,142.996 188.988,146.238 191.401 C 154.875 197.831,169.103 203.704,188.400 208.808 C 192.364 209.857,194.793 210.511,196.600 211.016 C 197.700 211.324,200.130 211.957,202.000 212.423 C 203.870 212.890,205.940 213.407,206.600 213.572 C 207.260 213.738,208.430 214.083,209.200 214.339 C 209.970 214.596,211.680 215.158,213.000 215.588 C 228.665 220.692,234.186 225.963,234.171 235.800 C 234.154 246.742,226.477 253.169,210.800 255.362 C 202.196 256.566,187.161 255.533,179.891 253.238 C 168.346 249.593,160.667 245.808,153.200 240.078 C 146.953 235.284,144.588 235.631,138.059 242.301 C 121.878 258.831,122.073 258.379,128.300 264.910 C 136.426 273.432,142.923 277.970,153.200 282.299 C 159.740 285.054,170.476 288.000,173.976 288.000 C 175.173 288.000,175.907 288.286,176.832 289.112 L 178.076 290.223 178.156 298.812 C 178.261 310.151,178.263 310.145,175.428 313.260 C 168.951 320.376,164.558 328.002,162.673 335.400 C 161.042 341.799,161.036 341.891,160.926 361.600 C 160.819 380.856,160.812 381.005,159.965 381.700 C 158.945 382.536,93.917 382.780,87.000 381.974 C 71.737 380.193,65.285 378.419,54.200 372.954 C 51.780 371.761,49.437 370.563,48.994 370.292 C 45.753 368.312,44.654 367.579,42.000 365.627 C 38.023 362.703,29.142 353.824,26.084 349.714 C 19.464 340.818,13.532 328.198,11.928 319.600 C 10.996 314.599,10.822 313.968,10.994 316.200 C 12.597 337.058,33.288 364.191,55.109 374.050 C 56.589 374.719,58.584 375.621,59.541 376.054 C 65.274 378.651,73.372 380.718,82.800 381.991 C 91.670 383.189,158.982 383.229,160.454 382.037 L 161.396 381.274 161.658 360.937 C 161.809 349.213,162.099 339.753,162.344 338.600 C 164.269 329.534,168.451 321.668,175.413 314.017 C 178.971 310.108,178.800 310.795,178.800 300.394 C 178.800 288.749,178.476 287.948,173.577 287.471 C 171.018 287.222,166.697 286.326,163.600 285.401 C 162.390 285.040,160.860 284.593,160.200 284.407 C 157.771 283.725,156.071 283.061,151.525 281.021 C 150.273 280.460,149.163 280.000,149.056 280.000 C 148.655 280.000,142.045 276.050,138.986 273.982 C 135.580 271.679,126.294 262.913,125.362 261.120 C 123.656 257.840,123.757 257.695,137.765 243.320 C 145.277 235.611,145.454 235.596,154.956 241.908 C 161.047 245.954,168.296 249.964,170.985 250.776 C 171.653 250.978,173.460 251.586,175.000 252.127 C 179.142 253.583,181.987 254.400,182.918 254.400 C 183.372 254.400,184.296 254.570,184.972 254.778 C 195.586 258.043,214.661 256.573,224.673 251.718 C 237.732 245.385,238.514 228.596,226.110 220.895 C 223.661 219.374,219.094 217.104,217.800 216.764 C 217.140 216.590,214.800 215.825,212.600 215.064 C 210.400 214.303,207.520 213.382,206.200 213.018 C 204.880 212.653,202.884 212.095,201.765 211.778 C 200.646 211.460,199.347 211.200,198.878 211.200 C 198.410 211.200,197.436 210.949,196.714 210.643 C 195.991 210.336,194.050 209.780,192.400 209.407 C 190.750 209.034,188.950 208.590,188.400 208.420 C 187.850 208.251,186.365 207.817,185.100 207.456 C 179.941 205.984,178.367 205.502,173.200 203.814 C 146.860 195.208,132.890 182.955,129.629 165.600 C 128.358 158.833,128.338 145.023,129.592 140.600 C 129.779 139.940,130.050 138.703,130.194 137.851 C 130.337 136.999,130.597 136.009,130.771 135.651 C 130.945 135.293,131.399 134.010,131.779 132.800 C 134.711 123.483,142.045 114.628,152.100 108.266 C 157.745 104.693,162.703 102.689,172.600 99.978 C 174.071 99.575,178.506 98.637,181.400 98.116 C 183.639 97.712,183.600 97.914,183.600 86.800 C 183.600 71.057,182.376 72.200,199.234 72.200 L 211.985 72.200 213.255 73.471 C 214.943 75.159,215.204 77.129,215.178 88.000 C 215.167 92.730,215.167 96.811,215.179 97.068 C 215.205 97.649,218.220 98.668,221.400 99.169 C 223.576 99.512,225.515 99.951,230.200 101.163 C 231.080 101.391,232.790 101.951,234.000 102.409 C 235.210 102.867,237.010 103.516,238.000 103.852 C 243.558 105.740,255.792 112.765,261.245 117.200 C 262.192 117.970,263.873 119.330,264.980 120.221 C 269.692 124.016,270.063 123.177,256.902 138.499 C 248.304 148.509,248.132 148.559,240.134 143.345 C 234.204 139.481,227.048 135.756,222.600 134.220 C 221.500 133.840,220.276 133.358,219.880 133.149 C 219.151 132.763,216.393 132.095,214.200 131.771 C 213.540 131.674,213.900 131.862,215.000 132.190 C 220.419 133.802,222.096 134.397,226.000 136.090 C 230.568 138.072,233.212 139.533,241.296 144.539 C 248.620 149.076,248.748 149.011,260.800 134.641 C 270.889 122.611,270.896 123.969,260.707 116.297 C 255.593 112.447,251.286 109.680,247.000 107.490 C 243.301 105.600,238.033 103.200,237.584 103.200 C 237.388 103.200,236.636 102.954,235.914 102.652 C 232.321 101.154,226.383 99.512,222.000 98.805 C 220.790 98.610,218.900 98.214,217.800 97.925 L 215.800 97.400 215.600 86.600 C 215.308 70.808,216.378 71.828,200.000 71.728 C 193.510 71.688,187.644 71.794,186.965 71.964 M9.957 94.490 C 8.545 100.855,9.270 315.263,10.699 313.835 C 10.818 313.715,10.665 312.218,10.358 310.509 C 9.533 305.910,9.524 99.170,10.349 95.082 C 11.044 91.639,10.703 91.125,9.957 94.490 M195.916 130.297 C 197.299 130.375,199.459 130.374,200.716 130.295 C 201.972 130.216,200.840 130.152,198.200 130.153 C 195.560 130.153,194.532 130.218,195.916 130.297 M206.200 130.818 C 207.960 130.974,210.210 131.213,211.200 131.350 C 212.897 131.584,212.874 131.565,210.800 131.016 C 209.590 130.696,207.340 130.457,205.800 130.485 L 203.000 130.535 206.200 130.818 M199.000 309.569 C 188.478 311.279,176.524 322.634,172.075 335.143 C 171.474 336.835,171.405 342.743,171.300 401.500 C 171.186 465.869,171.184 466.000,170.379 466.000 C 169.936 466.000,167.557 464.625,165.094 462.945 C 150.293 452.851,136.267 453.287,125.382 464.179 C 115.115 474.452,114.366 489.039,123.347 503.800 C 127.109 509.984,129.890 514.603,131.610 517.525 C 132.606 519.216,134.071 521.590,134.866 522.800 C 135.661 524.010,138.410 528.395,140.976 532.544 C 159.844 563.057,166.661 572.682,175.453 581.222 C 186.958 592.396,201.454 600.352,218.600 604.903 C 225.076 606.621,224.381 606.470,232.000 607.814 C 233.870 608.144,237.560 608.589,240.200 608.803 C 242.840 609.017,245.414 609.290,245.919 609.409 C 252.674 610.997,280.054 608.688,291.446 605.570 C 293.181 605.095,295.140 604.570,295.800 604.404 C 298.382 603.753,305.670 600.787,309.924 598.656 C 337.784 584.697,354.700 559.506,360.057 524.000 C 360.922 518.269,361.036 453.479,360.188 449.800 C 357.638 438.738,350.492 429.725,340.723 425.249 C 337.313 423.687,334.759 422.800,333.669 422.800 C 333.171 422.800,331.631 422.515,330.247 422.168 C 327.951 421.591,327.405 421.591,324.064 422.168 C 322.049 422.515,319.090 422.800,317.488 422.800 L 314.577 422.800 311.988 420.152 C 304.841 412.842,292.911 409.325,284.800 412.137 C 280.313 413.693,279.835 413.607,276.867 410.711 C 271.856 405.823,266.500 402.990,258.935 401.226 C 256.348 400.622,248.358 400.580,247.267 401.164 C 246.080 401.799,244.579 401.698,243.949 400.939 C 243.496 400.393,243.382 394.671,243.295 368.111 C 243.193 336.953,243.164 335.868,242.375 333.525 C 238.686 322.575,230.472 314.582,218.600 310.390 C 215.941 309.452,203.045 308.911,199.000 309.569 M217.398 310.573 C 218.223 310.918,219.150 311.200,219.457 311.200 C 220.223 311.200,224.920 313.484,227.600 315.160 C 232.320 318.111,237.914 324.437,240.193 329.400 C 242.953 335.413,242.779 332.814,242.790 368.211 C 242.801 404.662,242.577 402.277,245.948 401.825 C 258.561 400.133,268.616 403.160,276.797 411.113 C 280.012 414.238,279.799 414.118,281.281 413.644 C 286.169 412.081,286.994 411.942,291.495 411.926 C 299.817 411.897,305.626 414.400,311.949 420.741 L 314.498 423.297 318.949 423.058 C 321.397 422.927,324.459 422.701,325.754 422.556 C 332.770 421.769,343.035 425.704,349.322 431.590 C 354.722 436.646,357.635 441.837,359.780 450.226 C 360.536 453.185,360.709 513.223,359.978 519.200 C 359.750 521.070,359.393 524.040,359.185 525.800 C 355.097 560.475,333.208 589.384,301.670 601.762 C 278.234 610.960,241.847 611.605,215.000 603.298 C 211.555 602.232,209.429 601.528,208.600 601.178 C 208.160 600.992,206.180 600.184,204.200 599.383 C 183.056 590.828,170.591 578.790,151.537 548.524 C 150.733 547.246,148.592 543.860,146.781 541.000 C 136.531 524.817,123.194 502.810,121.208 498.800 C 118.812 493.964,117.600 488.999,117.600 484.019 C 117.600 463.240,138.541 450.181,157.600 459.075 C 160.677 460.511,163.394 462.174,167.117 464.900 C 168.596 465.983,169.560 466.412,170.317 466.325 L 171.400 466.200 171.619 401.800 C 171.862 330.633,171.646 336.158,174.401 330.736 C 179.962 319.791,191.115 310.757,200.200 309.838 C 204.091 309.444,215.904 309.949,217.398 310.573 M205.000 339.157 C 201.948 339.466,199.236 341.022,197.597 343.405 C 195.023 347.146,195.200 341.189,195.200 423.999 C 195.200 509.165,195.504 501.204,192.123 504.473 C 186.735 509.683,182.597 508.700,173.524 500.059 C 170.140 496.836,165.398 492.400,162.986 490.200 C 160.574 488.000,158.420 485.999,158.200 485.754 C 156.373 483.715,150.143 480.160,147.716 479.772 C 142.260 478.900,138.984 484.094,141.400 489.786 C 141.730 490.564,142.288 491.875,142.639 492.700 C 144.413 496.862,177.018 546.680,184.199 556.200 C 187.281 560.287,195.646 568.245,199.800 571.043 C 210.093 577.976,219.304 581.514,234.600 584.409 C 239.634 585.362,263.336 586.134,265.241 585.407 C 265.548 585.290,268.140 585.017,271.000 584.800 C 275.680 584.446,277.588 584.184,285.200 582.853 C 303.442 579.661,325.453 559.449,332.521 539.400 C 335.173 531.876,335.917 529.085,337.375 521.200 C 338.313 516.125,338.319 453.937,337.381 451.693 C 334.701 445.278,324.206 444.953,321.487 451.200 C 321.248 451.750,320.947 455.441,320.819 459.402 C 320.605 466.033,320.512 466.724,319.651 468.118 C 316.837 472.671,308.801 473.495,304.664 469.654 C 302.248 467.411,302.220 467.253,302.001 454.328 C 301.811 443.077,301.756 442.397,300.963 441.328 C 297.761 437.011,290.484 436.295,286.663 439.921 C 284.111 442.344,284.000 442.938,284.000 454.197 C 284.000 461.971,283.868 464.742,283.450 465.742 C 280.215 473.486,267.900 474.393,263.661 467.200 L 262.600 465.400 262.400 447.600 C 262.248 434.039,262.075 429.562,261.677 428.800 C 258.877 423.446,247.971 424.234,244.105 430.070 L 243.000 431.738 242.776 442.169 C 242.599 450.369,242.409 453.032,241.885 454.617 C 238.839 463.835,224.730 465.052,220.510 456.460 L 219.400 454.200 219.200 399.200 C 218.983 339.512,219.146 343.276,216.695 341.489 C 213.824 339.396,210.057 338.645,205.000 339.157 M214.235 340.634 C 215.436 341.202,216.910 342.282,217.510 343.034 L 218.600 344.400 218.808 399.300 C 219.042 460.783,218.797 456.074,221.927 459.335 C 226.973 464.594,237.185 463.644,241.026 457.559 C 242.827 454.706,243.200 452.038,243.200 442.003 C 243.200 434.253,243.308 432.494,243.852 431.347 C 246.676 425.396,257.269 423.579,260.881 428.426 C 261.598 429.388,261.657 430.482,261.821 445.826 C 262.025 464.946,262.065 465.443,263.590 467.921 C 267.579 474.401,278.775 474.141,283.115 467.468 L 284.200 465.800 284.405 454.800 C 284.534 447.843,284.777 443.432,285.066 442.800 C 287.351 437.794,295.177 436.576,299.537 440.547 C 301.345 442.194,301.392 442.519,301.600 454.866 L 301.800 466.733 303.012 468.457 C 305.997 472.702,312.066 474.004,316.757 471.405 C 320.572 469.293,320.930 468.360,321.202 459.851 C 321.473 451.367,321.834 450.195,324.749 448.346 C 328.860 445.740,334.604 447.326,336.839 451.684 C 337.568 453.106,337.600 454.501,337.600 485.231 C 337.600 521.088,337.773 518.530,334.411 532.400 C 331.566 544.135,322.504 558.578,312.274 567.681 C 306.914 572.451,295.106 580.000,293.005 580.000 C 292.849 580.000,292.154 580.247,291.460 580.550 C 289.797 581.275,287.029 582.059,284.800 582.436 C 273.630 584.326,269.943 584.695,259.000 585.019 C 250.561 585.268,237.021 584.475,232.000 583.436 C 226.042 582.204,222.231 581.275,221.000 580.756 C 220.560 580.570,219.300 580.125,218.200 579.767 C 217.100 579.409,215.300 578.708,214.200 578.210 C 213.100 577.713,211.210 576.885,210.000 576.371 C 202.036 572.989,192.018 565.138,185.878 557.466 C 181.126 551.529,166.059 529.092,151.452 506.200 C 150.188 504.220,148.163 501.070,146.951 499.200 C 139.303 487.398,139.098 480.400,146.400 480.400 C 151.509 480.400,153.342 481.764,172.814 500.053 C 179.986 506.789,181.873 508.000,185.200 508.000 C 188.876 508.000,192.853 505.447,194.626 501.949 L 195.600 500.027 195.600 424.246 C 195.600 339.098,195.319 347.090,198.455 343.131 C 201.353 339.472,209.166 338.236,214.235 340.634 " stroke="none" fill="#84b194" fill-rule="evenodd"></path><path id="path4" d="M362.400 43.800 C 363.146 44.570,363.847 45.200,363.957 45.200 C 364.067 45.200,363.546 44.570,362.800 43.800 C 362.054 43.030,361.353 42.400,361.243 42.400 C 361.133 42.400,361.654 43.030,362.400 43.800 M9.797 202.000 C 9.797 255.790,9.843 277.795,9.900 250.900 C 9.957 224.005,9.957 179.995,9.900 153.100 C 9.843 126.205,9.797 148.210,9.797 202.000 M201.300 130.676 C 201.685 130.776,202.315 130.776,202.700 130.676 C 203.085 130.575,202.770 130.493,202.000 130.493 C 201.230 130.493,200.915 130.575,201.300 130.676 M139.600 185.800 C 140.346 186.570,141.047 187.200,141.157 187.200 C 141.267 187.200,140.746 186.570,140.000 185.800 C 139.254 185.030,138.553 184.400,138.443 184.400 C 138.333 184.400,138.854 185.030,139.600 185.800 M262.200 202.000 C 263.506 203.320,264.665 204.400,264.775 204.400 C 264.885 204.400,263.906 203.320,262.600 202.000 C 261.294 200.680,260.135 199.600,260.025 199.600 C 259.915 199.600,260.894 200.680,262.200 202.000 M274.131 232.600 C 274.133 234.140,274.205 234.721,274.292 233.891 C 274.379 233.061,274.377 231.801,274.289 231.091 C 274.200 230.381,274.129 231.060,274.131 232.600 M133.178 247.100 L 131.800 248.600 133.300 247.222 C 134.696 245.938,134.984 245.600,134.678 245.600 C 134.612 245.600,133.937 246.275,133.178 247.100 M229.381 247.700 L 227.800 249.400 229.500 247.819 C 231.081 246.348,231.384 246.000,231.081 246.000 C 231.016 246.000,230.251 246.765,229.381 247.700 M127.578 253.100 L 126.200 254.600 127.700 253.222 C 129.096 251.938,129.384 251.600,129.078 251.600 C 129.012 251.600,128.337 252.275,127.578 253.100 M205.700 255.876 C 206.085 255.976,206.715 255.976,207.100 255.876 C 207.485 255.775,207.170 255.693,206.400 255.693 C 205.630 255.693,205.315 255.775,205.700 255.876 M124.093 258.800 C 124.093 259.570,124.175 259.885,124.276 259.500 C 124.376 259.115,124.376 258.485,124.276 258.100 C 124.175 257.715,124.093 258.030,124.093 258.800 M129.983 266.900 C 131.641 268.666,132.000 268.984,132.000 268.683 C 132.000 268.619,131.145 267.764,130.100 266.783 L 128.200 265.000 129.983 266.900 M262.175 266.900 L 261.000 268.200 262.300 267.025 C 263.512 265.930,263.784 265.600,263.475 265.600 C 263.406 265.600,262.821 266.185,262.175 266.900 M132.400 269.325 C 132.400 269.394,132.985 269.979,133.700 270.625 L 135.000 271.800 133.825 270.500 C 132.730 269.288,132.400 269.016,132.400 269.325 M255.978 273.100 L 254.600 274.600 256.100 273.222 C 256.925 272.463,257.600 271.788,257.600 271.722 C 257.600 271.416,257.262 271.704,255.978 273.100 M231.993 300.900 C 234.299 303.265,236.234 305.200,236.293 305.200 C 236.582 305.200,236.094 304.687,232.100 300.793 L 227.800 296.600 231.993 300.900 M178.109 306.000 C 178.109 306.990,178.187 307.395,178.282 306.900 C 178.378 306.405,178.378 305.595,178.282 305.100 C 178.187 304.605,178.109 305.010,178.109 306.000 M202.100 309.876 C 202.485 309.976,203.115 309.976,203.500 309.876 C 203.885 309.775,203.570 309.693,202.800 309.693 C 202.030 309.693,201.715 309.775,202.100 309.876 M184.175 318.100 L 183.000 319.400 184.300 318.225 C 185.512 317.130,185.784 316.800,185.475 316.800 C 185.406 316.800,184.821 317.385,184.175 318.100 M205.300 339.076 C 205.685 339.176,206.315 339.176,206.700 339.076 C 207.085 338.975,206.770 338.893,206.000 338.893 C 205.230 338.893,204.915 338.975,205.300 339.076 M219.394 399.000 C 219.394 428.700,219.442 440.909,219.500 426.131 C 219.558 411.353,219.558 387.053,219.500 372.131 C 219.442 357.209,219.394 369.300,219.394 399.000 M89.700 382.276 C 90.085 382.376,90.715 382.376,91.100 382.276 C 91.485 382.175,91.170 382.093,90.400 382.093 C 89.630 382.093,89.315 382.175,89.700 382.276 M309.700 382.287 C 310.305 382.378,311.295 382.378,311.900 382.287 C 312.505 382.195,312.010 382.120,310.800 382.120 C 309.590 382.120,309.095 382.195,309.700 382.287 M276.600 411.200 C 277.459 412.080,278.252 412.800,278.362 412.800 C 278.472 412.800,277.859 412.080,277.000 411.200 C 276.141 410.320,275.348 409.600,275.238 409.600 C 275.128 409.600,275.741 410.320,276.600 411.200 M315.300 423.476 C 315.685 423.576,316.315 423.576,316.700 423.476 C 317.085 423.375,316.770 423.293,316.000 423.293 C 315.230 423.293,314.915 423.375,315.300 423.476 M253.700 425.076 C 254.085 425.176,254.715 425.176,255.100 425.076 C 255.485 424.975,255.170 424.893,254.400 424.893 C 253.630 424.893,253.315 424.975,253.700 425.076 M283.728 447.600 C 283.728 449.030,283.801 449.615,283.889 448.900 C 283.978 448.185,283.978 447.015,283.889 446.300 C 283.801 445.585,283.728 446.170,283.728 447.600 M302.172 455.600 C 302.172 460.770,302.229 462.885,302.299 460.300 C 302.368 457.715,302.368 453.485,302.299 450.900 C 302.229 448.315,302.172 450.430,302.172 455.600 M328.307 446.690 C 329.026 446.779,330.106 446.777,330.707 446.686 C 331.308 446.595,330.720 446.522,329.400 446.524 C 328.080 446.526,327.588 446.601,328.307 446.690 M283.750 460.600 C 283.751 463.020,283.816 463.958,283.896 462.685 C 283.976 461.412,283.975 459.432,283.894 458.285 C 283.814 457.138,283.749 458.180,283.750 460.600 M125.381 464.500 L 123.800 466.200 125.500 464.619 C 127.081 463.148,127.384 462.800,127.081 462.800 C 127.016 462.800,126.251 463.565,125.381 464.500 M165.800 492.800 C 166.659 493.680,167.452 494.400,167.562 494.400 C 167.672 494.400,167.059 493.680,166.200 492.800 C 165.341 491.920,164.548 491.200,164.438 491.200 C 164.328 491.200,164.941 491.920,165.800 492.800 M174.383 500.900 C 176.041 502.666,176.400 502.984,176.400 502.683 C 176.400 502.619,175.545 501.764,174.500 500.783 L 172.600 499.000 174.383 500.900 M187.200 560.110 C 187.200 560.171,188.595 561.566,190.300 563.210 L 193.400 566.200 190.410 563.100 C 187.633 560.221,187.200 559.817,187.200 560.110 M238.305 585.083 C 238.802 585.179,239.522 585.175,239.905 585.075 C 240.287 584.975,239.880 584.896,239.000 584.901 C 238.120 584.905,237.807 584.987,238.305 585.083 M269.300 585.087 C 269.905 585.178,270.895 585.178,271.500 585.087 C 272.105 584.995,271.610 584.920,270.400 584.920 C 269.190 584.920,268.695 584.995,269.300 585.087 M244.100 585.476 C 244.485 585.576,245.115 585.576,245.500 585.476 C 245.885 585.375,245.570 585.293,244.800 585.293 C 244.030 585.293,243.715 585.375,244.100 585.476 M250.291 585.889 C 251.001 585.977,252.261 585.979,253.091 585.892 C 253.921 585.805,253.340 585.733,251.800 585.731 C 250.260 585.729,249.581 585.800,250.291 585.889 M257.712 585.895 C 258.764 585.977,260.384 585.976,261.312 585.892 C 262.240 585.808,261.380 585.741,259.400 585.742 C 257.420 585.743,256.660 585.812,257.712 585.895 M248.707 609.090 C 249.426 609.179,250.506 609.177,251.107 609.086 C 251.708 608.995,251.120 608.922,249.800 608.924 C 248.480 608.926,247.988 609.001,248.707 609.090 " stroke="none" fill="#7aac88" fill-rule="evenodd"></path></g></svg>